<svg width="5000" height="36" viewBox="0 0 5000 36" fill="none" xmlns="http://www.w3.org/2000/svg">
<g clip-path="url(#clip0_60_1582)">
<path d="M0 18.9375C18.875 3.35789 48.8907 -16.7903 238.823 19.4701C476.239 64.7956 446.21 -16.735 868.021 6.89507C1289.83 30.5251 1432 -19.7751 1581.67 10.4879C1640.17 22.3147 1686.56 25.7854 1721 25.259C1735.38 25.259 1765.6 20.5 1794 14.5C1829.5 6.99999 1913.83 -0.920425 1967 20C2043.25 50 2193.5 -7.00001 2269 6.49999C2344.5 20 2463.5 41 2548.5 20.5C2633.5 -1.71661e-05 2720 0.999983 2777.5 20.5C2835 40 2943 27.5 2976.5 14C3010 0.499994 3148.5 -5.00002 3189 21C3229.5 47 3264 23 3274 17.5C3284 12 3323.5 -9.00002 3370.5 17.5C3417.5 44 3451.5 7.99998 3508 17.5C3564.5 27 3649 32.5 3694 17.5C3739 2.49998 3901 -5.50002 3994 17.5C4087 40.5 4184 -9.50002 4221 17.5C4258 44.5 4294 27.5 4317 17.5C4340 7.49998 4365 1.49998 4394 17.5C4423 33.5 4472 7.49999 4566 12.5C4660 17.5 4667 26.5 4713 12.5C4759 -1.50001 4827 2.49999 4872 12.5C4917 22.5 4980.25 38.5 4990 31C4999.75 23.5 5010 0.749993 5029.5 8.24999C5045.1 14.25 5013.67 60.75 4996 83.25L1689 147.5L1721 35.4999H0V18.9375Z" fill="#F7F7F8"/>
</g>
<defs>
<clipPath id="clip0_60_1582">
<rect width="5000" height="35" fill="white" transform="translate(0 0.5)"/>
</clipPath>
</defs>
</svg>
