<svg width="5000" height="715" viewBox="0 0 5000 715" fill="none" xmlns="http://www.w3.org/2000/svg">
<rect width="5000" height="575" fill="currentColor"/>
<g clip-path="url(#clip0_122_659)">
<path d="M673.12 655.225C436.53 769.196 141.748 672.193 0 624.706V575L1790 575H5268.84C5259.7 639.696 5193.67 686.922 5000.2 624.77C4631.69 506.381 4285 759 4013 695C3741 631 3687 643 3543 667C3399 691 3301 624.706 3061 684.85C2821 744.995 2801 707 2663 648.124C2525 589.248 2499 707 2413 648.124C2327 589.248 2323 684.85 2163 648.124C2035 618.743 1861 660.366 1790 684.85C1718.82 706.623 1617.11 667.175 1536.67 648.124C1380.11 611.045 1349.18 595.432 1194.55 624.706C1039.91 653.979 968.857 512.762 673.12 655.225Z" fill="currentColor"/>
</g>
<defs>
<clipPath id="clip0_122_659">
<rect width="5000" height="140" fill="white" transform="translate(0 575)"/>
</clipPath>
</defs>
</svg>
