<svg width="5000" height="141" viewBox="0 0 5000 141" fill="none" xmlns="http://www.w3.org/2000/svg">
<g clip-path="url(#clip0_60_1581)">
<path d="M673.12 80.7252C436.53 194.695 141.748 97.6932 0 50.2056V0.499939L179 -103.5L1817 -31.5001L1869 -55.5001L4325 -43.5001L5251 -93.5001C5293.67 -4.16673 5285.39 141.887 5000.2 50.2695C4631.69 -68.1193 4285 184.5 4013 120.5C3741 56.4999 3687 68.4999 3543 92.4999C3399 116.5 3301 50.2056 3061 110.35C2821 170.495 2801 132.5 2663 73.6241C2525 14.7483 2499 132.5 2413 73.6241C2327 14.7483 2323 110.35 2163 73.6241C2035 44.2433 1861 85.8661 1790 110.35C1718.82 132.122 1617.11 92.675 1536.67 73.6241C1380.11 36.5447 1349.18 20.9324 1194.55 50.2056C1039.91 79.4788 968.857 -61.7377 673.12 80.7252Z" fill="#FEF6F6"/>
</g>
<defs>
<clipPath id="clip0_60_1581">
<rect width="5000" height="140" fill="white" transform="translate(0 0.5)"/>
</clipPath>
</defs>
</svg>
