<svg width="5000" height="191" viewBox="0 0 5000 191" fill="none" xmlns="http://www.w3.org/2000/svg">
<g clip-path="url(#clip0_60_1583)">
<path d="M0 94.7562C63.5539 32.8101 210.654 -61.3479 290.62 57.5885C390.579 206.259 684.902 69.5353 923.692 77.4998C1162.48 85.4643 1340.19 256.701 1497.53 157.145C1623.4 77.4998 1726.5 101.32 1790 129.269C1865.5 162.5 2000.8 208.1 2184 162.5C2413 105.5 2489 -50.5002 2713 95.4998C2937 241.5 3243.84 103.09 3399 132.5C3552 161.5 3641.97 149.78 3747 118.5C4113 9.49977 4143 68.4998 4433 141.5C4723 214.5 4932.02 158.973 5000.14 94.625C5083.02 16.3274 5115.67 200.166 5109 308.5L1765 281.5L0 190.5V94.7562Z" fill="#FEF6F6"/>
</g>
<defs>
<clipPath id="clip0_60_1583">
<rect width="5000" height="190" fill="white" transform="translate(0 0.5)"/>
</clipPath>
</defs>
</svg>
