<svg width="5000" height="140" viewBox="0 0 5000 140" fill="none" xmlns="http://www.w3.org/2000/svg">
<g clip-path="url(#clip0_60_1581)">
<path d="M673.12 80.2252C436.53 194.195 141.748 97.1932 0 49.7056V-6.10352e-05L1790 0H5268.84C5259.7 64.6956 5193.67 111.922 5000.2 49.7695C4631.69 -68.6193 4285 184 4013 120C3741 55.9999 3687 67.9999 3543 91.9999C3399 116 3301 49.7056 3061 109.85C2821 169.995 2801 132 2663 73.1241C2525 14.2483 2499 132 2413 73.1241C2327 14.2483 2323 109.85 2163 73.1241C2035 43.7433 1861 85.3661 1790 109.85C1718.82 131.622 1617.11 92.175 1536.67 73.1241C1380.11 36.0447 1349.18 20.4324 1194.55 49.7056C1039.91 78.9788 968.857 -62.2377 673.12 80.2252Z" fill="#FEF6F6"/>
</g>
<defs>
<clipPath id="clip0_60_1581">
<rect width="5000" height="140" fill="white"/>
</clipPath>
</defs>
</svg>
