<svg width="32" height="32" viewBox="0 0 32 32" fill="none" xmlns="http://www.w3.org/2000/svg">
<path d="M25.2471 15.5758C25.2471 17.9687 24.3903 20.0136 22.6767 21.7104C20.963 23.4072 18.683 24.2556 15.8366 24.2556C13.179 24.2556 10.9571 23.4942 9.17087 21.9714C7.38462 20.4342 6.49149 18.4328 6.49149 15.9674L8.97481 15.6628C8.97481 17.7657 9.91877 19.2885 11.8067 20.2311C13.012 20.8402 14.3118 21.1448 15.7059 21.1448C17.6955 21.1448 19.3656 20.659 20.7161 19.6873C22.0812 18.7011 22.7638 17.2799 22.7638 15.4235L25.2471 15.5758ZM6.20831 25.6696C8.89494 28.3236 12.1407 29.6506 15.9455 29.6506C19.7794 29.6506 23.047 28.3308 25.7481 25.6914C28.4493 23.0229 29.7999 19.7888 29.7999 15.9891C29.7999 12.1894 28.4493 8.95536 25.7481 6.28688C23.047 3.64741 19.7794 2.32767 15.9455 2.32767C12.1407 2.32767 8.89494 3.65466 6.20831 6.30863C3.50715 8.96261 2.15657 12.1894 2.15657 15.9891C2.15657 19.7743 3.50715 23.0011 6.20831 25.6696ZM27.2948 4.67709C30.4316 7.79515 32 11.5658 32 15.9891C32 20.4124 30.4316 24.1831 27.2948 27.3012C24.1579 30.4337 20.3749 32 15.9455 32C11.5307 32 7.76946 30.4337 4.66167 27.3012C1.55389 24.1831 0 20.4124 0 15.9891C0 11.5658 1.55389 7.79515 4.66167 4.67709C7.76946 1.55903 11.5307 0 15.9455 0C20.3749 0 24.1579 1.55903 27.2948 4.67709ZM20.3458 13.4439C21.101 13.4439 21.7254 13.1974 22.2192 12.7043C22.713 12.2112 22.9598 11.5948 22.9598 10.8552C22.9598 10.1011 22.713 9.47745 22.2192 8.98436C21.7254 8.49128 21.101 8.24473 20.3458 8.24473C19.6052 8.24473 18.988 8.49128 18.4942 8.98436C18.015 9.47745 17.7754 10.1011 17.7754 10.8552C17.7754 11.5948 18.015 12.2112 18.4942 12.7043C18.988 13.1974 19.6052 13.4439 20.3458 13.4439ZM11.6324 13.4439C12.3876 13.4439 13.012 13.1974 13.5058 12.7043C13.9995 12.2112 14.2464 11.5948 14.2464 10.8552C14.2464 10.1011 13.9995 9.47745 13.5058 8.98436C13.012 8.49128 12.3876 8.24473 11.6324 8.24473C10.8918 8.24473 10.2746 8.49128 9.7808 8.98436C9.30157 9.47745 9.06195 10.1011 9.06195 10.8552C9.06195 11.5948 9.30157 12.2112 9.7808 12.7043C10.2746 13.1974 10.8918 13.4439 11.6324 13.4439Z" fill="black"/>
</svg>
